<mxfile host="app.diagrams.net" modified="2023-02-22T03:14:24.557Z" agent="5.0 (Windows NT 10.0; Win64; x64) AppleWebKit/537.36 (KHTML, like Gecko) Chrome/109.0.0.0 Safari/537.36" etag="txWdgocsmWlQCot6q2uN" version="20.8.20" type="github">
  <diagram name="第 1 页" id="L-44clw5l3WzsGwCj_VI">
    <mxGraphModel dx="1050" dy="558" grid="1" gridSize="10" guides="1" tooltips="1" connect="1" arrows="1" fold="1" page="1" pageScale="1" pageWidth="827" pageHeight="1169" math="0" shadow="0">
      <root>
        <mxCell id="0" />
        <mxCell id="1" parent="0" />
        <mxCell id="yn22zNhBBdNR8hUx_VJX-7" style="edgeStyle=orthogonalEdgeStyle;rounded=0;orthogonalLoop=1;jettySize=auto;html=1;exitX=1;exitY=0.5;exitDx=0;exitDy=0;" edge="1" parent="1" source="yn22zNhBBdNR8hUx_VJX-1" target="yn22zNhBBdNR8hUx_VJX-5">
          <mxGeometry relative="1" as="geometry" />
        </mxCell>
        <mxCell id="yn22zNhBBdNR8hUx_VJX-1" value="0" style="ellipse;whiteSpace=wrap;html=1;aspect=fixed;" vertex="1" parent="1">
          <mxGeometry x="240" y="240" width="40" height="40" as="geometry" />
        </mxCell>
        <mxCell id="yn22zNhBBdNR8hUx_VJX-2" value="4" style="ellipse;whiteSpace=wrap;html=1;aspect=fixed;" vertex="1" parent="1">
          <mxGeometry x="560" y="120" width="40" height="40" as="geometry" />
        </mxCell>
        <mxCell id="yn22zNhBBdNR8hUx_VJX-10" style="edgeStyle=orthogonalEdgeStyle;rounded=0;orthogonalLoop=1;jettySize=auto;html=1;exitX=1;exitY=0.5;exitDx=0;exitDy=0;" edge="1" parent="1" source="yn22zNhBBdNR8hUx_VJX-3" target="yn22zNhBBdNR8hUx_VJX-2">
          <mxGeometry relative="1" as="geometry" />
        </mxCell>
        <mxCell id="yn22zNhBBdNR8hUx_VJX-3" value="3" style="ellipse;whiteSpace=wrap;html=1;aspect=fixed;" vertex="1" parent="1">
          <mxGeometry x="440" y="120" width="40" height="40" as="geometry" />
        </mxCell>
        <mxCell id="yn22zNhBBdNR8hUx_VJX-9" style="edgeStyle=orthogonalEdgeStyle;rounded=0;orthogonalLoop=1;jettySize=auto;html=1;exitX=0.5;exitY=0;exitDx=0;exitDy=0;entryX=0.5;entryY=1;entryDx=0;entryDy=0;" edge="1" parent="1" source="yn22zNhBBdNR8hUx_VJX-4" target="yn22zNhBBdNR8hUx_VJX-3">
          <mxGeometry relative="1" as="geometry" />
        </mxCell>
        <mxCell id="yn22zNhBBdNR8hUx_VJX-4" value="2" style="ellipse;whiteSpace=wrap;html=1;aspect=fixed;" vertex="1" parent="1">
          <mxGeometry x="440" y="240" width="40" height="40" as="geometry" />
        </mxCell>
        <mxCell id="yn22zNhBBdNR8hUx_VJX-8" style="edgeStyle=orthogonalEdgeStyle;rounded=0;orthogonalLoop=1;jettySize=auto;html=1;exitX=1;exitY=0.5;exitDx=0;exitDy=0;entryX=0;entryY=0.5;entryDx=0;entryDy=0;" edge="1" parent="1" source="yn22zNhBBdNR8hUx_VJX-5" target="yn22zNhBBdNR8hUx_VJX-4">
          <mxGeometry relative="1" as="geometry" />
        </mxCell>
        <mxCell id="yn22zNhBBdNR8hUx_VJX-5" value="1" style="ellipse;whiteSpace=wrap;html=1;aspect=fixed;" vertex="1" parent="1">
          <mxGeometry x="340" y="200" width="40" height="40" as="geometry" />
        </mxCell>
        <mxCell id="yn22zNhBBdNR8hUx_VJX-20" style="edgeStyle=orthogonalEdgeStyle;rounded=0;orthogonalLoop=1;jettySize=auto;html=1;entryX=0;entryY=0.5;entryDx=0;entryDy=0;" edge="1" parent="1" source="yn22zNhBBdNR8hUx_VJX-12" target="yn22zNhBBdNR8hUx_VJX-15">
          <mxGeometry relative="1" as="geometry">
            <Array as="points">
              <mxPoint x="260" y="340" />
            </Array>
          </mxGeometry>
        </mxCell>
        <mxCell id="yn22zNhBBdNR8hUx_VJX-12" value="0" style="ellipse;whiteSpace=wrap;html=1;aspect=fixed;" vertex="1" parent="1">
          <mxGeometry x="240" y="440" width="40" height="40" as="geometry" />
        </mxCell>
        <mxCell id="yn22zNhBBdNR8hUx_VJX-13" value="4" style="ellipse;whiteSpace=wrap;html=1;aspect=fixed;" vertex="1" parent="1">
          <mxGeometry x="560" y="320" width="40" height="40" as="geometry" />
        </mxCell>
        <mxCell id="yn22zNhBBdNR8hUx_VJX-21" value="" style="edgeStyle=orthogonalEdgeStyle;rounded=0;orthogonalLoop=1;jettySize=auto;html=1;" edge="1" parent="1" source="yn22zNhBBdNR8hUx_VJX-15" target="yn22zNhBBdNR8hUx_VJX-17">
          <mxGeometry relative="1" as="geometry" />
        </mxCell>
        <mxCell id="yn22zNhBBdNR8hUx_VJX-15" value="3" style="ellipse;whiteSpace=wrap;html=1;aspect=fixed;" vertex="1" parent="1">
          <mxGeometry x="440" y="320" width="40" height="40" as="geometry" />
        </mxCell>
        <mxCell id="yn22zNhBBdNR8hUx_VJX-22" value="" style="edgeStyle=orthogonalEdgeStyle;rounded=0;orthogonalLoop=1;jettySize=auto;html=1;" edge="1" parent="1" source="yn22zNhBBdNR8hUx_VJX-17" target="yn22zNhBBdNR8hUx_VJX-19">
          <mxGeometry relative="1" as="geometry" />
        </mxCell>
        <mxCell id="yn22zNhBBdNR8hUx_VJX-17" value="2" style="ellipse;whiteSpace=wrap;html=1;aspect=fixed;" vertex="1" parent="1">
          <mxGeometry x="440" y="450" width="40" height="40" as="geometry" />
        </mxCell>
        <mxCell id="yn22zNhBBdNR8hUx_VJX-23" style="edgeStyle=orthogonalEdgeStyle;rounded=0;orthogonalLoop=1;jettySize=auto;html=1;entryX=0.5;entryY=1;entryDx=0;entryDy=0;" edge="1" parent="1" source="yn22zNhBBdNR8hUx_VJX-19" target="yn22zNhBBdNR8hUx_VJX-13">
          <mxGeometry relative="1" as="geometry" />
        </mxCell>
        <mxCell id="yn22zNhBBdNR8hUx_VJX-19" value="1" style="ellipse;whiteSpace=wrap;html=1;aspect=fixed;" vertex="1" parent="1">
          <mxGeometry x="340" y="400" width="40" height="40" as="geometry" />
        </mxCell>
      </root>
    </mxGraphModel>
  </diagram>
</mxfile>
